<?xml version="1.0" standalone="no"?>
<!DOCTYPE svg PUBLIC "-//W3C//DTD SVG 20010904//EN"
 "http://www.w3.org/TR/2001/REC-SVG-20010904/DTD/svg10.dtd">
<svg version="1.0" xmlns="http://www.w3.org/2000/svg"
 width="396.000000pt" height="396.000000pt" viewBox="0 0 396.000000 396.000000"
 preserveAspectRatio="xMidYMid meet">
<metadata>
Created by potrace 1.14, written by Peter Selinger 2001-2017
</metadata>
<g transform="translate(0.000000,396.000000) scale(0.100000,-0.100000)"
fill="#000000" stroke="none">
<path d="M0 1995 c0 -1662 2 -1965 14 -1965 7 0 19 -7 26 -15 11 -13 242 -15
1966 -15 l1954 0 0 1980 0 1980 -1980 0 -1980 0 0 -1965z m1200 121 c0 -23 6
-48 12 -54 10 -10 10 -17 1 -31 -9 -14 -12 -177 -13 -626 0 -365 -4 -614 -10
-624 -7 -12 -9 -8 -10 19 0 20 -5 41 -11 47 -8 8 -7 17 3 32 10 17 10 25 0 41
-9 15 -9 20 0 20 9 0 9 3 0 12 -13 13 -17 108 -4 108 4 0 8 18 10 40 1 22 -2
40 -8 40 -13 0 -13 57 0 65 6 3 10 19 10 35 0 16 -4 32 -10 35 -5 3 -10 17
-10 31 0 13 5 24 10 24 6 0 10 11 10 24 0 14 -4 28 -10 31 -5 3 -10 21 -10 40
0 19 5 37 10 40 14 9 12 65 -2 65 -9 0 -9 3 0 12 14 14 16 84 2 93 -12 7 -11
173 1 181 12 7 11 71 -1 79 -5 3 -10 46 -10 95 0 49 5 92 10 95 6 3 10 24 10
46 0 24 4 38 10 34 6 -3 10 -25 10 -49z m1232 -737 c6 -18 -4 -89 -12 -89 -8
0 -18 71 -12 89 2 6 7 11 12 11 5 0 10 -5 12 -11z m-1236 -666 c-3 -4 1 -15
11 -25 15 -17 15 -18 -5 -18 -19 0 -22 6 -22 43 1 34 3 39 11 24 6 -10 8 -21
5 -24z"/>
</g>
</svg>
